<svg xmlns="http://www.w3.org/2000/svg" xmlns:svg="http://www.w3.org/2000/svg" id="svg2" width="573.781" height="523.518" version="1.1"><defs id="defs4"><marker id="Arrow1Lend" orient="auto" refX="0" refY="0" style="overflow:visible"><path id="path3812" d="M 0,0 5,-5 -12.5,0 5,5 0,0 z" transform="matrix(-0.8,0,0,-0.8,-10,0)" style="fill-rule:evenodd;stroke:#000;stroke-width:1pt"/></marker></defs><metadata id="metadata7"/><g id="layer1" transform="translate(-6.1249828,-45.01339)"><flowRoot id="flowRoot4692" xml:space="preserve" style="font-size:40px;font-style:normal;font-weight:400;line-height:125%;letter-spacing:0;word-spacing:0;fill:#000;fill-opacity:1;stroke:none;font-family:Sans"><flowRegion id="flowRegion4694"><rect id="rect4696" width="120" height="50" x="241.429" y="165.219"/></flowRegion><flowPara id="flowPara4698"/></flowRoot><g id="g3168"><path id="path2985" d="m 62.28571,496.93361 502.85715,-2.85714" style="fill:none;stroke:#000;stroke-width:1px;stroke-linecap:butt;stroke-linejoin:miter;stroke-opacity:1"/><g id="g4714" transform="translate(-66,0)"><g id="g2995" transform="translate(-2,-4)"><path id="path2987" d="m 131.42857,500.93361 25.71429,71.42857" style="fill:none;stroke:#000;stroke-width:1px;stroke-linecap:butt;stroke-linejoin:miter;stroke-opacity:1"/><path style="fill:none;stroke:#000;stroke-width:1px;stroke-linecap:butt;stroke-linejoin:miter;stroke-opacity:1" id="path2989" d="m 178.85714,499.79075 25.71429,71.42857"/><path id="path2991" d="m 223.71428,500.07646 25.71429,71.42857" style="fill:none;stroke:#000;stroke-width:1px;stroke-linecap:butt;stroke-linejoin:miter;stroke-opacity:1"/><path style="fill:none;stroke:#000;stroke-width:1px;stroke-linecap:butt;stroke-linejoin:miter;stroke-opacity:1" id="path2993" d="m 265.71428,500.9336 25.71429,71.42857"/></g><g id="g3001" transform="translate(176,-4)"><path style="fill:none;stroke:#000;stroke-width:1px;stroke-linecap:butt;stroke-linejoin:miter;stroke-opacity:1" id="path3003" d="m 131.42857,500.93361 25.71429,71.42857"/><path id="path3005" d="m 178.85714,499.79075 25.71429,71.42857" style="fill:none;stroke:#000;stroke-width:1px;stroke-linecap:butt;stroke-linejoin:miter;stroke-opacity:1"/><path style="fill:none;stroke:#000;stroke-width:1px;stroke-linecap:butt;stroke-linejoin:miter;stroke-opacity:1" id="path3007" d="m 223.71428,500.07646 25.71429,71.42857"/><path id="path3009" d="m 265.71428,500.9336 25.71429,71.42857" style="fill:none;stroke:#000;stroke-width:1px;stroke-linecap:butt;stroke-linejoin:miter;stroke-opacity:1"/></g><g id="g3011" transform="translate(354,-6)"><path id="path3013" d="m 131.42857,500.93361 25.71429,71.42857" style="fill:none;stroke:#000;stroke-width:1px;stroke-linecap:butt;stroke-linejoin:miter;stroke-opacity:1"/><path style="fill:none;stroke:#000;stroke-width:1px;stroke-linecap:butt;stroke-linejoin:miter;stroke-opacity:1" id="path3015" d="m 178.85714,499.79075 25.71429,71.42857"/><path id="path3017" d="m 223.71428,500.07646 25.71429,71.42857" style="fill:none;stroke:#000;stroke-width:1px;stroke-linecap:butt;stroke-linejoin:miter;stroke-opacity:1"/><path style="fill:none;stroke:#000;stroke-width:1px;stroke-linecap:butt;stroke-linejoin:miter;stroke-opacity:1" id="path3019" d="m 265.71428,500.9336 25.71429,71.42857"/></g></g><path id="path3021" d="M 41.733498,331.85181 301.2093,495.97228" style="fill:#d20000;fill-opacity:1;stroke:#cb0000;stroke-width:.67293268px;stroke-linecap:butt;stroke-linejoin:miter;stroke-opacity:1"/><path id="path3803" d="m 302.05592,494.79859 0,-67.84266" style="fill:none;stroke:#000;stroke-width:1px;stroke-linecap:butt;stroke-linejoin:miter;stroke-opacity:1;marker-end:url(#Arrow1Lend)"/><path id="path4249" d="m 35.714285,256.64789 c 0,5.52285 -4.477153,10 -10,10 -5.522848,0 -10,-4.47715 -10,-10 0,-5.52285 4.477152,-10 10,-10 5.522847,0 10,4.47715 10,10 z" transform="translate(8,68.857143)" style="fill:#d20000;fill-opacity:1;stroke:#dc0000;stroke-opacity:1"/><path style="fill:#d20000;fill-opacity:1;stroke:#dc0000;stroke-opacity:1" id="path4649" d="m 35.714285,256.64789 c 0,5.52285 -4.477153,10 -10,10 -5.522848,0 -10,-4.47715 -10,-10 0,-5.52285 4.477152,-10 10,-10 5.522847,0 10,4.47715 10,10 z" transform="translate(65.142857,-201.14286)"/><path id="path4651" d="M 93.714286,62.647896 300.85714,495.50504" style="fill:none;stroke:#cb0000;stroke-width:1px;stroke-linecap:butt;stroke-linejoin:miter;stroke-opacity:1"/><g id="g4686" transform="matrix(0.71038251,0,0,1,86.754098,2)"><path style="fill:none;stroke:#b700de;stroke-width:1px;stroke-linecap:butt;stroke-linejoin:miter;stroke-opacity:1" id="path4671" d="m 300,492.36218 -180,-180"/><path id="path4673" d="m 306,492.36218 180,-180" style="fill:none;stroke:#b700de;stroke-width:1px;stroke-linecap:butt;stroke-linejoin:miter;stroke-opacity:1"/><path style="fill:none;stroke:#b700de;stroke-width:.94868332px;stroke-linecap:butt;stroke-linejoin:miter;stroke-opacity:1" id="path4682" d="m 120,312.36218 c 36,-40 144,-60 162,-60 18,0 18,0 18,0"/><path id="path4684" d="m 482,312.36218 c -36,-40 -144,-60 -162,-60 -18,0 -18,0 -18,0" style="fill:none;stroke:#b700de;stroke-width:.94868332px;stroke-linecap:butt;stroke-linejoin:miter;stroke-opacity:1"/></g><text id="text4700" x="260" y="282.362" xml:space="preserve" style="font-size:15px;font-style:normal;font-variant:normal;font-weight:400;font-stretch:normal;text-align:start;line-height:125%;letter-spacing:0;word-spacing:0;writing-mode:lr-tb;text-anchor:start;fill:purple;fill-opacity:1;stroke:none;font-family:Sans;-inkscape-font-specification:Sans"><tspan id="tspan4704" x="260" y="282.362">45 degrees</tspan></text><g id="g3880" transform="matrix(0.5512699,-0.21161269,0.21161269,0.5512699,-125.52732,47.51729)"><path style="fill:none;stroke:#d30000;stroke-opacity:1" id="path3882" d="m 421.02668,202.16362 c -22.88446,32.28154 -80.69002,46.08321 -129.11233,30.8269 -16.25284,-5.12074 -30.05074,-13.15246 -39.85306,-23.19833" transform="matrix(0.69738025,0.03654814,-0.03654814,0.69738025,110.18082,54.956563)"/><path id="path3884" d="m 421.02668,202.16362 c -22.88446,32.28154 -80.69002,46.08321 -129.11233,30.8269 -16.25284,-5.12074 -30.05074,-13.15246 -39.85306,-23.19833" transform="matrix(0.5979164,0.03133546,-0.03133546,0.5979164,142.58108,66.821533)" style="fill:none;stroke:#d30000;stroke-opacity:1"/><path style="fill:none;stroke:#d30000;stroke-opacity:1" id="path3886" d="m 421.02668,202.16362 c -22.88446,32.28154 -80.69002,46.08321 -129.11233,30.8269 -16.25284,-5.12074 -30.05074,-13.15246 -39.85306,-23.19833" transform="matrix(0.46265631,0.02424679,-0.02424679,0.46265631,186.64194,89.275311)"/><path id="path3888" d="m 421.02668,202.16362 c -22.88446,32.28154 -80.69002,46.08321 -129.11233,30.8269 -16.25284,-5.12074 -30.05074,-13.15246 -39.85306,-23.19833" transform="matrix(0.3400949,0.01782361,-0.01782361,0.3400949,226.5662,108.68222)" style="fill:none;stroke:#d30000;stroke-opacity:1"/><path style="fill:none;stroke:#d30000;stroke-opacity:1" id="path3890" d="m 421.02668,202.16362 c -22.88446,32.28154 -80.69002,46.08321 -129.11233,30.8269 -16.25284,-5.12074 -30.05074,-13.15246 -39.85306,-23.19833" transform="matrix(0.23750096,0.01244689,-0.01244689,0.23750096,259.98609,125.29821)"/><path id="path3892" d="m 421.02668,202.16362 c -22.88446,32.28154 -80.69002,46.08321 -129.11233,30.8269 -16.25284,-5.12074 -30.05074,-13.15246 -39.85306,-23.19833" transform="matrix(0.14220059,0.00745241,-0.00745241,0.14220059,291.03011,140.1642)" style="fill:none;stroke:#d30000;stroke-opacity:1"/><path style="fill:none;stroke:#d30000;stroke-opacity:1" id="path3894" d="m 421.02668,202.16362 c -22.88446,32.28154 -80.69002,46.08321 -129.11233,30.8269 -16.25284,-5.12074 -30.05074,-13.15246 -39.85306,-23.19833" transform="matrix(0.07683951,0.00402699,-0.00402699,0.07683951,312.32143,149.84668)"/></g><g id="g3896" transform="matrix(0.41018883,-0.42476296,0.42476296,0.41018883,-160.93202,410.69684)"><path style="fill:none;stroke:#d30000;stroke-opacity:1" id="path3898" d="m 421.02668,202.16362 c -22.88446,32.28154 -80.69002,46.08321 -129.11233,30.8269 -16.25284,-5.12074 -30.05074,-13.15246 -39.85306,-23.19833" transform="matrix(0.69738025,0.03654814,-0.03654814,0.69738025,110.18082,54.956563)"/><path id="path3900" d="m 421.02668,202.16362 c -22.88446,32.28154 -80.69002,46.08321 -129.11233,30.8269 -16.25284,-5.12074 -30.05074,-13.15246 -39.85306,-23.19833" transform="matrix(0.5979164,0.03133546,-0.03133546,0.5979164,142.58108,66.821533)" style="fill:none;stroke:#d30000;stroke-opacity:1"/><path style="fill:none;stroke:#d30000;stroke-opacity:1" id="path3902" d="m 421.02668,202.16362 c -22.88446,32.28154 -80.69002,46.08321 -129.11233,30.8269 -16.25284,-5.12074 -30.05074,-13.15246 -39.85306,-23.19833" transform="matrix(0.46265631,0.02424679,-0.02424679,0.46265631,186.64194,89.275311)"/><path id="path3904" d="m 421.02668,202.16362 c -22.88446,32.28154 -80.69002,46.08321 -129.11233,30.8269 -16.25284,-5.12074 -30.05074,-13.15246 -39.85306,-23.19833" transform="matrix(0.3400949,0.01782361,-0.01782361,0.3400949,226.5662,108.68222)" style="fill:none;stroke:#d30000;stroke-opacity:1"/><path style="fill:none;stroke:#d30000;stroke-opacity:1" id="path3906" d="m 421.02668,202.16362 c -22.88446,32.28154 -80.69002,46.08321 -129.11233,30.8269 -16.25284,-5.12074 -30.05074,-13.15246 -39.85306,-23.19833" transform="matrix(0.23750096,0.01244689,-0.01244689,0.23750096,259.98609,125.29821)"/><path id="path3908" d="m 421.02668,202.16362 c -22.88446,32.28154 -80.69002,46.08321 -129.11233,30.8269 -16.25284,-5.12074 -30.05074,-13.15246 -39.85306,-23.19833" transform="matrix(0.14220059,0.00745241,-0.00745241,0.14220059,291.03011,140.1642)" style="fill:none;stroke:#d30000;stroke-opacity:1"/><path style="fill:none;stroke:#d30000;stroke-opacity:1" id="path3910" d="m 421.02668,202.16362 c -22.88446,32.28154 -80.69002,46.08321 -129.11233,30.8269 -16.25284,-5.12074 -30.05074,-13.15246 -39.85306,-23.19833" transform="matrix(0.07683951,0.00402699,-0.00402699,0.07683951,312.32143,149.84668)"/></g><text id="text3912" x="15.152" y="58.372" xml:space="preserve" style="font-size:20px;font-style:normal;font-variant:normal;font-weight:400;font-stretch:normal;text-align:start;line-height:125%;letter-spacing:0;word-spacing:0;writing-mode:lr-tb;text-anchor:start;fill:#d40000;fill-opacity:1;stroke:none;font-family:Sans;-inkscape-font-specification:Sans"><tspan id="tspan3914" x="15.152" y="58.372">sonar</tspan></text><text style="font-size:20px;font-style:normal;font-variant:normal;font-weight:400;font-stretch:normal;text-align:start;line-height:125%;letter-spacing:0;word-spacing:0;writing-mode:lr-tb;text-anchor:start;fill:#d40000;fill-opacity:1;stroke:none;font-family:Sans;-inkscape-font-specification:Sans" id="text3916" x="5.051" y="303.819" xml:space="preserve"><tspan id="tspan3918" x="5.051" y="303.819">sonar</tspan></text><text id="text3920" x="239.408" y="-70.039" transform="matrix(0.42261828,0.90630778,-0.90630778,0.42261828,0,0)" xml:space="preserve" style="font-size:15px;font-style:normal;font-variant:normal;font-weight:400;font-stretch:normal;text-align:start;line-height:125%;letter-spacing:0;word-spacing:0;writing-mode:lr-tb;text-anchor:start;fill:#000;fill-opacity:1;stroke:none;font-family:Sans;-inkscape-font-specification:Sans"><tspan style="font-size:15px;font-style:normal;font-variant:normal;font-weight:400;font-stretch:normal;text-align:start;line-height:125%;writing-mode:lr-tb;text-anchor:start;fill:#d40000;font-family:Sans;-inkscape-font-specification:Sans" id="tspan3922" x="239.408" y="-70.039">reflected ray</tspan></text><text id="text3924" x="413.015" y="238.972" transform="matrix(0.82903758,0.55919289,-0.55919289,0.82903758,0,0)" xml:space="preserve" style="font-size:15px;font-style:normal;font-variant:normal;font-weight:400;font-stretch:normal;text-align:start;line-height:125%;letter-spacing:0;word-spacing:0;writing-mode:lr-tb;text-anchor:start;fill:#d40000;fill-opacity:1;stroke:none;font-family:Sans;-inkscape-font-specification:Sans"><tspan id="tspan3926" x="413.015" y="238.972">lost ray</tspan></text></g></g></svg>