<svg xmlns="http://www.w3.org/2000/svg" xmlns:svg="http://www.w3.org/2000/svg" style="enable-background:new 0 0 512 512" id="info-svg" x="0" y="0" version="1.1" viewBox="0 0 512 512" xml:space="preserve"><style id="style18" type="text/css"/><g style="clip-rule:evenodd;fill-rule:evenodd;image-rendering:optimizeQuality;shape-rendering:geometricPrecision;text-rendering:geometricPrecision" id="g20" transform="translate(-4.1755618,-4.4446824)"><path id="path18" fill="#fefffe" d="m 420.5,54.5 c 7.035,-0.4923 13.368,1.341 19,5.5 10.567,9.897 20.4,20.397 29.5,31.5 2.297,6.9606 1.63,13.627 -2,20 -5.015,5.182 -10.181,10.182 -15.5,15 -19.777,-16.274 -39.11,-33.1071 -58,-50.5 6.636,-5.6345 12.969,-11.6345 19,-18 2.658,-1.478 5.325,-2.6446 8,-3.5 z" style="opacity:.972"/></g><g style="clip-rule:evenodd;fill-rule:evenodd;image-rendering:optimizeQuality;shape-rendering:geometricPrecision;text-rendering:geometricPrecision" id="g32" transform="translate(-4.1755618,-4.4446824)"><path id="path30" fill="#fefffe" d="m 96.5,79.5 c 71.002,-0.007 142.002,0.3264 213,1 0,13.6667 0,27.333 0,41 -63,0 -126,0 -189,0 0.811,88.998 1.144,177.998 1,267 89.331,0.721 178.665,1.055 268,1 0.679,-55.331 1.012,-110.664 1,-166 14,0 28,0 42,0 -1.295,61.169 -1.295,122.335 0,183.5 0.88,12.768 -4.787,20.768 -17,24 0.667,0.333 1.333,0.667 2,1 -108.381,-0.925 -216.715,-1.259 -325,-1 -2.7792,-2.779 -5.9459,-5.946 -9.5,-9.5 -1.7932,-3.546 -3.2932,-7.213 -4.5,-11 1.3314,-103.391 1.3314,-206.891 0,-310.5 0.1667,-3.1667 0.3333,-6.3333 0.5,-9.5 0.3076,0.8081 0.8076,1.4747 1.5,2 3.6194,-6.6359 8.9527,-10.9693 16,-13 z" style="opacity:.985"/></g><g style="clip-rule:evenodd;fill-rule:evenodd;image-rendering:optimizeQuality;shape-rendering:geometricPrecision;text-rendering:geometricPrecision" id="g36" transform="translate(-4.1755618,-4.4446824)"><path id="path34" fill="#fefffe" d="m 363.5,103.5 c 19.166,16.997 38.499,33.831 58,50.5 1.507,0.837 2.007,2.004 1.5,3.5 -46.161,43.161 -91.328,87.328 -135.5,132.5 -9.136,4.737 -18.136,4.404 -27,-1 -9.289,-10.446 -19.123,-20.279 -29.5,-29.5 -3.481,-7.492 -3.148,-14.825 1,-22 40.919,-40.919 81.586,-81.586 122,-122 3.404,-3.894 6.571,-7.894 9.5,-12 z" style="opacity:.984"/></g><g style="clip-rule:evenodd;fill-rule:evenodd;image-rendering:optimizeQuality;shape-rendering:geometricPrecision;text-rendering:geometricPrecision" id="g44" transform="translate(-4.1755618,-4.4446824)"><path id="path42" fill="#fefffe" d="m 183.5,280.5 c 4.48,-0.232 8.813,0.435 13,2 0.586,-0.209 1.086,-0.543 1.5,-1 3.112,6.779 7.945,11.945 14.5,15.5 7.191,8.189 14.691,16.023 22.5,23.5 5.395,15.709 0.229,26.209 -15.5,31.5 -12,1.5 -24,3 -36,4.5 -13.421,-1.756 -20.754,-9.422 -22,-23 1.209,-13.501 3.376,-26.834 6.5,-40 3.266,-6.779 8.433,-11.112 15.5,-13 z" style="opacity:.971"/></g></svg>